Sadda Haq 2013 Punjabi  hindi Movie dvdscr rip  jattonhunt
Video
ID                             : 1
Format                         : AVC
Format/Info                    : Advanced Video Codec
Format profile                 : Main@L5.1
Format settings, CABAC         : Yes
Format settings, ReFrames      : 1 frame
Codec ID                       : V_MPEG4/ISO/AVC
Duration                       : 2h 8mn
Bit rate                       : 197 Kbps
Width                          : 440 pixels
Height                         : 200 pixels
Display aspect ratio           : 2.2:1
Frame rate mode                : Constant
Frame rate                     : 25.000 fps
Color space                    : YUV
Chroma subsampling             : 4:2:0
Bit depth                      : 8 bits
Scan type                      : Progressive
Bits/(Pixel*Frame)             : 0.089
Stream size                    : 181 MiB (74%)
Title                          : Sadda Haq 2013 Punjabi  hindi Movie dvdscr rip  jattonhunt
Language                       : Panjabi
Default                        : Yes
Forced                         : No

Audio
ID                             : 2
Format                         : MPEG Audio
Format version                 : Version 1
Format profile                 : Layer 2
Codec ID                       : A_MPEG/L2
Codec ID/Hint                  : MP2
Duration                       : 2h 8mn
Bit rate mode                  : Constant
Bit rate                       : 64.0 Kbps
Channel(s)                     : 2 channels
Sampling rate                  : 44.1 KHz
Compression mode               : Lossy
Stream size                    : 59.0 MiB (24%)
Title                          : Sadda Haq 2013 Punjabi  hindi Movie dvdscr rip  jattonhunt
Language                       : Panjabi
Default                        : Yes
Forced                         : No

